<svg id="Layer_1" xmlns="http://www.w3.org/2000/svg" width="167.7" height="39.2"><style>.st0{fill:#6728ed}</style><path class="st0" d="M231.9 13.8c-1.2.4-2.5.6-4 .6-3.3 0-5.5-1-6.8-2.9-.7-1-1.1-2.4-1.2-4.1h-3.8c0 3.2 1 5.7 3 7.6 2 1.9 4.9 2.8 8.5 2.8 3.1 0 5.8-.7 8.2-2.1 2.3-1.4 3.5-3.7 3.5-7 0-2.6-.9-4.6-2.8-6-1-.7-2.5-1.4-4.5-1.8l-4-1c-2.7-.6-4.5-1.2-5.3-1.6-1.2-.7-1.8-1.7-1.8-3.2 0-1.3.5-2.5 1.5-3.4 1-1 2.6-1.5 4.9-1.5 2.8 0 4.8.8 6 2.3.6.8 1.1 2.1 1.2 3.6h3.8c0-3.3-1.1-5.7-3.2-7.1-2.1-1.5-4.7-2.2-7.8-2.2-3.3 0-5.9.8-7.7 2.5-1.8 1.7-2.7 3.9-2.7 6.5 0 2.4.9 4.3 2.8 5.5 1.1.7 2.9 1.4 5.4 1.9l3.9.9c2.1.5 3.7 1.1 4.7 1.7 1 .7 1.5 1.8 1.5 3.4.2 2.3-1 3.8-3.3 4.6zm27 2c2.5-2 3.7-5.3 3.7-10 0-3.5-.9-6.1-2.6-8-1.7-1.9-3.8-2.8-6.3-2.8-1.7 0-3.1.4-4.4 1.2-.9.5-1.7 1.3-2.4 2.3v-2.8h-3.6v29.9h3.7v-11c.8 1 1.5 1.7 2.2 2.1 1.1.7 2.5 1.1 4.1 1.1 2.2-.1 4-.7 5.6-2zm24.9 1.7c.5 0 .9 0 1.2-.1.3 0 .7-.1 1.3-.3v-2.7c-.2 0-.4.1-.6.1h-.5c-.5 0-.8-.1-1-.3-.2-.2-.2-.5-.2-.9V.9c0-2-.8-3.5-2.4-4.5-1.6-1-3.7-1.4-6.2-1.4-2.2 0-4.1.5-5.8 1.6-1.7 1-2.5 2.9-2.6 5.5h3.4c.1-1.1.4-2 .9-2.5.8-1 2.2-1.5 4.1-1.5 1.7 0 2.9.3 3.8.8.9.6 1.3 1.5 1.3 2.7 0 .6-.1 1.1-.2 1.4-.3.6-.8.9-1.7 1l-5.8.7c-2 .3-3.7.9-5 2-1.3 1.1-1.9 2.6-1.9 4.6 0 1.8.6 3.3 1.9 4.5 1.3 1.2 2.9 1.8 4.9 1.8 1.7 0 3.2-.4 4.6-1.1 1.4-.7 2.5-1.5 3.2-2.5.1.9.3 1.5.6 2 .5 1 1.5 1.5 2.7 1.5zm9.7-30h-3.7V17h3.7v-29.5zm-54.9 42.2c-1.4 0-2.6.3-3.7.8-1.1.6-2.1 1.4-2.9 2.6-.5-.9-1-1.6-1.6-2.1-1.1-.8-2.5-1.3-4.2-1.3-1.5 0-2.9.4-4.1 1.2-.7.5-1.5 1.2-2.4 2.3v-3h-3.6v21.5h3.7V40.2c0-2.8.6-4.7 1.7-5.7 1.1-1.1 2.4-1.6 3.8-1.6 1.5 0 2.6.5 3.1 1.5.4.7.5 1.7.5 3.2v14h3.7V39.1c0-2.2.5-3.8 1.6-4.8 1-.9 2.3-1.4 3.7-1.4 1 0 1.9.3 2.7.8.7.5 1.1 1.5 1.1 2.9v14.9h3.8V37.3c0-1.9-.3-3.4-.9-4.5-1.1-2.1-3.1-3.1-6-3.1zm30.7 19.5c-.5 0-.8-.1-1-.3-.2-.2-.2-.5-.2-.9V35.6c0-2-.8-3.5-2.4-4.5-1.6-1-3.7-1.4-6.2-1.4-2.2 0-4.1.5-5.8 1.6-1.7 1-2.5 2.9-2.6 5.5h3.4c.1-1.1.4-2 .9-2.5.8-1 2.2-1.5 4.1-1.5 1.7 0 2.9.3 3.8.8.9.6 1.3 1.5 1.3 2.7 0 .6-.1 1.1-.2 1.4-.3.6-.8.9-1.7 1l-5.8.7c-2 .3-3.7.9-5 2-1.3 1.1-1.9 2.6-1.9 4.6 0 1.8.6 3.3 1.9 4.5 1.3 1.2 2.9 1.8 4.9 1.8 1.7 0 3.2-.4 4.6-1.1 1.4-.7 2.5-1.5 3.2-2.5.1.9.3 1.5.6 2 .6.9 1.5 1.3 2.7 1.3.5 0 .9 0 1.2-.1.3 0 .7-.1 1.3-.3v-2.7c-.2 0-.4.1-.6.1-.2.2-.4.2-.5.2zm4.7 2.4h3.7V22.2H274v29.4zm24.7-19.3c-1.9-1.8-4.3-2.8-7.1-2.8-3.1 0-5.6 1.1-7.4 3.2-1.8 2.1-2.8 5-2.8 8.6 0 3.4.9 6 2.6 8 1.7 2 4.1 3 7.1 3 3.6 0 6.2-1.1 7.9-3.4 1.7-2.3 2.5-5.1 2.5-8.6.1-3.4-.9-6.2-2.8-8zM3.8 20.9c.1 1.7.5 3.1 1.1 4.1 1.3 2 3.6 3 6.8 3 1.5 0 2.8-.2 4-.6 2.3-.8 3.5-2.3 3.5-4.5 0-1.6-.5-2.8-1.5-3.5-1-.7-2.6-1.3-4.7-1.8l-3.9-.9c-2.6-.6-4.4-1.2-5.4-2C1.9 13.5 1 11.6 1 9.2c0-2.7.9-4.9 2.7-6.6C5.5.9 8.1 0 11.4 0c3 0 5.6.8 7.7 2.3 2.1 1.5 3.2 3.9 3.2 7.2h-3.8c-.2-1.6-.6-2.8-1.2-3.7-1.2-1.6-3.2-2.3-6-2.3-2.3 0-4 .5-5 1.5S4.8 7.2 4.8 8.5c0 1.5.6 2.5 1.8 3.2.8.4 2.5 1 5.2 1.6l4 1c2 .5 3.5 1.1 4.5 1.9 1.8 1.4 2.7 3.4 2.7 6.1 0 3.3-1.2 5.7-3.5 7.1-2.3 1.4-5.1 2.1-8.2 2.1-3.6 0-6.4-.9-8.5-2.8-2-1.9-3-4.4-3-7.6h4zM27.3 8.9h3.6v2.9c.7-1 1.5-1.8 2.4-2.3 1.2-.8 2.7-1.2 4.3-1.2 2.5 0 4.6.9 6.3 2.8s2.6 4.6 2.6 8.1c0 4.7-1.2 8.1-3.7 10.1-1.6 1.3-3.4 1.9-5.5 1.9-1.6 0-3-.4-4.1-1.1-.7-.4-1.4-1.1-2.2-2.1v11.1h-3.6V8.9zM62.2 17.4c.8-.1 1.4-.5 1.7-1.1.2-.3.2-.8.2-1.4 0-1.2-.4-2.2-1.3-2.7-.9-.6-2.1-.8-3.8-.8-1.9 0-3.3.5-4 1.5-.4.6-.7 1.4-.9 2.5h-3.4c.1-2.7.9-4.6 2.6-5.6 1.7-1.1 3.6-1.6 5.8-1.6 2.6 0 4.6.5 6.2 1.5 1.6 1 2.4 2.5 2.4 4.5v12.5c0 .4.1.7.2.9.2.2.5.3 1 .3h.5c.2 0 .4 0 .6-.1v2.7c-.6.2-1 .3-1.3.3-.3 0-.7.1-1.2.1-1.3 0-2.2-.4-2.7-1.3-.3-.5-.5-1.1-.6-2-.7 1-1.8 1.8-3.2 2.5-1.4.7-2.9 1.1-4.6 1.1-2 0-3.7-.6-4.9-1.8-1.3-1.2-1.9-2.8-1.9-4.6 0-2 .6-3.6 1.9-4.7 1.3-1.1 2.9-1.8 4.9-2l5.8-.7zM73.5.8h3.6v29.8h-3.6V.8zM82.4 8.8H86v3.1c.9-1.1 1.6-1.8 2.4-2.3 1.2-.8 2.6-1.2 4.1-1.2 1.7 0 3.1.4 4.2 1.3.6.5 1.1 1.2 1.6 2.1.8-1.2 1.8-2 2.9-2.6 1.1-.6 2.3-.8 3.7-.8 2.9 0 4.9 1.1 6 3.2.6 1.1.9 2.7.9 4.6v14.5H108V15.4c0-1.4-.4-2.4-1.1-3-.7-.5-1.6-.8-2.6-.8-1.4 0-2.7.5-3.7 1.4-1 1-1.6 2.6-1.6 4.8v12.6h-3.7v-14c0-1.5-.2-2.5-.5-3.2-.6-1-1.6-1.5-3.1-1.5-1.4 0-2.6.5-3.8 1.6S86 16.2 86 19v11.5h-3.6V8.8zM128.7 17.4c.8-.1 1.4-.5 1.7-1.1.2-.3.2-.8.2-1.4 0-1.2-.4-2.2-1.3-2.7-.9-.6-2.1-.8-3.8-.8-1.9 0-3.3.5-4 1.5-.4.6-.7 1.4-.9 2.5h-3.4c.1-2.7.9-4.6 2.6-5.6 1.7-1.1 3.6-1.6 5.8-1.6 2.6 0 4.6.5 6.2 1.5 1.6 1 2.4 2.5 2.4 4.5v12.5c0 .4.1.7.2.9.2.2.5.3 1 .3h.5c.2 0 .4 0 .6-.1v2.7c-.6.2-1 .3-1.3.3-.3 0-.7.1-1.2.1-1.3 0-2.2-.4-2.7-1.3-.3-.5-.5-1.1-.6-2-.7 1-1.8 1.8-3.2 2.5-1.4.7-2.9 1.1-4.6 1.1-2 0-3.7-.6-4.9-1.8-1.3-1.2-1.9-2.8-1.9-4.6 0-2 .6-3.6 1.9-4.7 1.3-1.1 2.9-1.8 4.9-2l5.8-.7zM140.1.8h3.6v29.8h-3.6V.8zM164.8 11c1.9 1.9 2.9 4.6 2.9 8.2 0 3.5-.8 6.4-2.5 8.7-1.7 2.3-4.3 3.4-7.9 3.4-3 0-5.3-1-7.1-3-1.7-2-2.6-4.7-2.6-8.1 0-3.6.9-6.5 2.8-8.7 1.8-2.2 4.3-3.2 7.4-3.2 2.7-.1 5.1.8 7 2.7z"/></svg>