<svg id="Layer_1" xmlns="http://www.w3.org/2000/svg" width="85.5" height="65.6"><style>.st0{fill:#6728ed}</style><path class="st0" d="M15.8 27.1c-1.2.4-2.5.6-4 .6-3.3 0-5.5-1-6.8-2.9-.7-1-1.1-2.4-1.2-4.1H0c0 3.2 1 5.7 3 7.6 2 1.9 4.9 2.8 8.5 2.8 3.1 0 5.8-.7 8.2-2.1 2.3-1.4 3.5-3.7 3.5-7 0-2.6-.9-4.6-2.8-6-1.1-.8-2.6-1.4-4.5-1.9l-4.1-.9c-2.7-.6-4.5-1.2-5.3-1.6-1.2-.7-1.8-1.7-1.8-3.2 0-1.3.5-2.5 1.5-3.4 1-1 2.6-1.5 4.9-1.5 2.8 0 4.8.8 6 2.3.6.8 1.1 2.1 1.2 3.6h3.8c0-3.3-1.1-5.7-3.2-7.1C17 .7 14.4 0 11.4 0 8.1 0 5.5.8 3.7 2.5 1.9 4.2 1 6.4 1 9.1c0 2.4.9 4.3 2.8 5.5 1.1.7 2.9 1.4 5.4 1.9l3.9.9c2.1.5 3.7 1.1 4.7 1.7 1 .7 1.5 1.8 1.5 3.4 0 2.2-1.2 3.7-3.5 4.6zm27 1.9c2.5-2 3.7-5.3 3.7-10 0-3.5-.9-6.1-2.6-8-1.7-1.9-3.8-2.8-6.3-2.8-1.7 0-3.1.4-4.4 1.2-.9.5-1.7 1.3-2.4 2.3V8.8h-3.6v29.9H31v-11c.8 1 1.5 1.7 2.2 2.1 1.1.7 2.5 1.1 4.1 1.1 2.1 0 3.9-.6 5.5-1.9zm24.9 1.7c.5 0 .9 0 1.2-.1.3 0 .7-.1 1.3-.3v-2.7c-.2 0-.4.1-.6.1h-.5c-.5 0-.8-.1-1-.3-.2-.2-.2-.5-.2-.9V14.1c0-2-.8-3.5-2.4-4.5-1.6-1-3.7-1.4-6.2-1.4-2.2 0-4.1.5-5.8 1.6-1.7 1-2.5 2.9-2.6 5.5h3.4c.1-1.1.4-2 .9-2.5.8-1 2.2-1.5 4.1-1.5 1.7 0 2.9.3 3.8.8.9.6 1.3 1.5 1.3 2.7 0 .6-.1 1.1-.2 1.4-.3.6-.8.9-1.7 1l-5.8.7c-2 .3-3.7.9-5 2-1.3 1.1-1.9 2.6-1.9 4.6 0 1.8.6 3.3 1.9 4.5 1.3 1.2 2.9 1.8 4.9 1.8 1.7 0 3.2-.4 4.6-1.1 1.4-.7 2.5-1.5 3.2-2.5.1.9.3 1.5.6 2 .5 1 1.5 1.5 2.7 1.5zm9.7-30h-3.7v29.5h3.7V.7zM22.5 42.9c-1.4 0-2.6.3-3.7.8-1.1.6-2.1 1.4-2.9 2.6-.5-.9-1-1.6-1.6-2.1-1.1-.8-2.5-1.3-4.2-1.3-1.5 0-2.9.4-4.1 1.2-.7.5-1.5 1.2-2.4 2.3v-3H0v21.5h3.7V53.4c0-2.8.6-4.7 1.7-5.7 1.1-1.1 2.4-1.6 3.8-1.6 1.5 0 2.6.5 3.1 1.5.4.7.5 1.7.5 3.2v14h3.7V52.3c0-2.2.5-3.8 1.6-4.8 1-.9 2.3-1.4 3.7-1.4 1 0 1.9.3 2.7.8.7.5 1.1 1.5 1.1 2.9v14.9h3.8V50.5c0-1.9-.3-3.4-.9-4.5-1.1-2.1-3.1-3.1-6-3.1zm30.7 19.5c-.5 0-.8-.1-1-.3-.2-.3-.2-.6-.2-1V48.8c0-2-.8-3.5-2.4-4.5-1.6-1-3.7-1.4-6.2-1.4-2.2 0-4.1.5-5.8 1.6-1.7 1-2.5 2.9-2.6 5.5h3.4c.1-1.1.4-2 .9-2.5.8-1 2.2-1.5 4.1-1.5 1.7 0 2.9.3 3.8.8.9.6 1.3 1.5 1.3 2.7 0 .6-.1 1.1-.2 1.4-.3.6-.8.9-1.7 1l-5.8.7c-2 .3-3.7.9-5 2-1.3 1.1-1.9 2.6-1.9 4.6 0 1.8.6 3.3 1.9 4.5 1.3 1.2 2.9 1.8 4.9 1.8 1.7 0 3.2-.4 4.6-1.1 1.4-.7 2.5-1.5 3.2-2.5.1.9.3 1.5.6 2 .6.9 1.5 1.3 2.7 1.3.5 0 .9 0 1.2-.1.3 0 .7-.1 1.3-.3v-2.7c-.2 0-.4.1-.6.1-.2.2-.4.2-.5.2zm4.7 2.4h3.7V35.4h-3.7v29.4zm24.7-19.3c-1.9-1.8-4.3-2.8-7.1-2.8-3.1 0-5.6 1.1-7.4 3.2-1.8 2.1-2.8 5-2.8 8.6 0 3.4.9 6 2.6 8 1.7 2 4.1 3 7.1 3 3.6 0 6.2-1.1 7.9-3.4 1.7-2.3 2.5-5.1 2.5-8.6.1-3.4-.9-6.2-2.8-8z" id="logo_x5F_vertical"/><g id="logo_x5F_horizontal"><path class="st0" d="M-212.3 34.1c.1 1.7.5 3.1 1.2 4.1 1.3 2 3.6 3 6.8 3 1.5 0 2.8-.2 4-.6 2.3-.8 3.5-2.3 3.5-4.5 0-1.6-.5-2.8-1.5-3.5-1-.7-2.6-1.3-4.7-1.8l-3.9-.9c-2.6-.6-4.4-1.2-5.4-2-1.8-1.2-2.7-3.1-2.7-5.6 0-2.7.9-4.9 2.7-6.6 1.8-1.7 4.4-2.6 7.7-2.6 3 0 5.6.8 7.7 2.3 2.1 1.5 3.2 3.9 3.2 7.2h-3.8c-.2-1.6-.6-2.8-1.2-3.7-1.2-1.6-3.2-2.3-6-2.3-2.3 0-3.9.5-4.9 1.5-1 1-1.5 2.2-1.5 3.5 0 1.5.6 2.5 1.8 3.2.8.4 2.5 1 5.2 1.6l4 1c2 .5 3.5 1.1 4.5 1.9 1.8 1.4 2.7 3.4 2.7 6.1 0 3.3-1.2 5.7-3.5 7.1-2.3 1.4-5.1 2.1-8.2 2.1-3.6 0-6.4-.9-8.5-2.8-2-1.9-3-4.4-3-7.6h3.8zM-188.8 22.1h3.6V25c.7-1 1.5-1.8 2.4-2.3 1.2-.8 2.7-1.2 4.3-1.2 2.5 0 4.6.9 6.3 2.8 1.7 1.9 2.6 4.6 2.6 8.1 0 4.7-1.2 8.1-3.7 10.1-1.6 1.3-3.4 1.9-5.5 1.9-1.6 0-3-.4-4.1-1.1-.7-.4-1.4-1.1-2.2-2.1v11.1h-3.6V22.1zM-153.9 30.6c.8-.1 1.4-.5 1.7-1.1.2-.3.2-.8.2-1.4 0-1.2-.4-2.2-1.3-2.7-.9-.6-2.1-.8-3.8-.8-1.9 0-3.3.5-4 1.5-.4.6-.7 1.4-.9 2.5h-3.4c.1-2.7.9-4.6 2.6-5.6 1.7-1.1 3.6-1.6 5.8-1.6 2.6 0 4.6.5 6.2 1.5 1.6 1 2.4 2.5 2.4 4.5V40c0 .4.1.7.2.9.2.2.5.3 1 .3h.5c.2 0 .4 0 .6-.1v2.7c-.6.2-1 .3-1.3.3-.3 0-.7.1-1.2.1-1.3 0-2.2-.4-2.7-1.3-.3-.5-.5-1.1-.6-2-.7 1-1.8 1.8-3.2 2.5-1.4.7-2.9 1.1-4.6 1.1-2 0-3.7-.6-4.9-1.8-1.3-1.2-1.9-2.8-1.9-4.6 0-2 .6-3.6 1.9-4.7 1.3-1.1 2.9-1.8 4.9-2l5.8-.8zM-142.6 14h3.6v29.8h-3.6V14zM-133.7 22h3.6v3.1c.9-1.1 1.6-1.8 2.4-2.3 1.2-.8 2.6-1.2 4.1-1.2 1.7 0 3.1.4 4.2 1.3.6.5 1.1 1.2 1.6 2.1.8-1.2 1.8-2 2.9-2.6s2.3-.8 3.7-.8c2.9 0 4.9 1.1 6 3.2.6 1.1.9 2.7.9 4.6v14.5h-3.8V28.7c0-1.4-.4-2.4-1.1-3-.7-.5-1.6-.8-2.6-.8-1.4 0-2.7.5-3.7 1.4-1 1-1.6 2.6-1.6 4.8v12.6h-3.7V29.6c0-1.5-.2-2.5-.5-3.2-.6-1-1.6-1.5-3.1-1.5-1.4 0-2.6.5-3.8 1.6-1.1 1.1-1.7 3-1.7 5.8v11.5h-3.6V22zM-87.4 30.6c.8-.1 1.4-.5 1.7-1.1.2-.3.2-.8.2-1.4 0-1.2-.4-2.2-1.3-2.7-.9-.6-2.1-.8-3.8-.8-1.9 0-3.3.5-4 1.5-.4.6-.7 1.4-.9 2.5h-3.4c.1-2.7.9-4.6 2.6-5.6 1.7-1.1 3.6-1.6 5.8-1.6 2.6 0 4.6.5 6.2 1.5 1.6 1 2.4 2.5 2.4 4.5V40c0 .4.1.7.2.9.2.2.5.3 1 .3h.5c.2 0 .4 0 .6-.1v2.7c-.6.2-1 .3-1.3.3-.3 0-.7.1-1.2.1-1.3 0-2.2-.4-2.7-1.3-.3-.5-.5-1.1-.6-2-.7 1-1.8 1.8-3.2 2.5-1.4.7-2.9 1.1-4.6 1.1-2 0-3.7-.6-4.9-1.8-1.3-1.2-1.9-2.8-1.9-4.6 0-2 .6-3.6 1.9-4.7 1.3-1.1 2.9-1.8 4.9-2l5.8-.8zM-76 14h3.6v29.8H-76V14zM-51.3 24.2c1.9 1.9 2.9 4.6 2.9 8.2 0 3.5-.8 6.4-2.5 8.7-1.7 2.3-4.3 3.4-7.9 3.4-3 0-5.3-1-7.1-3-1.7-2-2.6-4.7-2.6-8.1 0-3.6.9-6.5 2.8-8.7 1.8-2.2 4.3-3.2 7.4-3.2 2.7-.1 5.1.8 7 2.7z"/></g></svg>