<svg id="Группа_1_копия" data-name="Группа 1 копия" xmlns="http://www.w3.org/2000/svg" width="561" height="132" viewBox="0 0 561 132">
  <defs>
    <style>
      .cls-1 {
        fill: #6728ed;
      }

      .cls-1, .cls-2 {
        fill-rule: evenodd;
      }

      .cls-2 {
        fill: #fefefe;
      }
    </style>
  </defs>
  <path id="Прямоугольник_1" data-name="Прямоугольник 1" class="cls-1" d="M208,260v60H31V188H592v72H208Z" transform="translate(-31 -188)"/>
  <path id="Маркерное_выделенеие_текста_" data-name="Маркерное выделенеие текста " class="cls-2" d="M50.621,202.365V237.2h1.292V204.446L66.293,237.2h1.029l14.451-32.922V237.2h1.292V202.365h-1.89L66.8,235.311,52.464,202.365H50.621ZM110.172,237.2v-0.215a16.625,16.625,0,0,1-.669-5.79v-12.37a7.517,7.517,0,0,0-2.537-5.9,9.94,9.94,0,0,0-6.651-2.093,10.6,10.6,0,0,0-6.795,2.2,6.626,6.626,0,0,0-2.775,5.359l1.292,0.048a5.482,5.482,0,0,1,2.369-4.5,9.42,9.42,0,0,1,5.91-1.818,8.6,8.6,0,0,1,5.85,1.794,6.358,6.358,0,0,1,2.046,5.048v3.781h-6.389a15.48,15.48,0,0,0-8.553,2.189,6.562,6.562,0,0,0-3.218,5.706,6.485,6.485,0,0,0,2.189,5.084,8.359,8.359,0,0,0,5.778,1.95,12.961,12.961,0,0,0,6.006-1.363,10.393,10.393,0,0,0,4.187-3.852,17.976,17.976,0,0,0,.478,4.737h1.483Zm-16.939-2.464a5.145,5.145,0,0,1-1.89-4.02,5.4,5.4,0,0,1,2.393-4.474q2.943-2.2,8.493-2.2h5.982v6.149a10.08,10.08,0,0,1-3.936,4.569,11.62,11.62,0,0,1-6.257,1.627A7.012,7.012,0,0,1,93.233,234.737Zm44.382-10.647q0-6.292-2.608-9.774a8.449,8.449,0,0,0-7.153-3.481,10.124,10.124,0,0,0-5.168,1.316,9.484,9.484,0,0,0-3.613,3.78v-4.618h-1.292v35.841h1.292V233.181a8.967,8.967,0,0,0,3.589,3.3,11.169,11.169,0,0,0,5.239,1.2,8.336,8.336,0,0,0,7.106-3.565q2.608-3.564,2.608-9.618V224.09Zm-3.517,9.139a7.094,7.094,0,0,1-6.173,3.158,10.057,10.057,0,0,1-5.562-1.471,8.215,8.215,0,0,1-3.29-4.151V218.658a9.344,9.344,0,0,1,3.278-4.845,9.015,9.015,0,0,1,5.527-1.686,7.157,7.157,0,0,1,6.208,3.146q2.212,3.147,2.213,8.721Q136.3,230.072,134.1,233.229Zm28.52,3.972h1.938l-12.513-13.194,11-12.694h-1.866l-10.264,11.963h-4.976V211.313h-1.316V237.2h1.316V224.568h4.737Zm23.854-3.709-0.909-.646a9.026,9.026,0,0,1-3.242,2.674,10.311,10.311,0,0,1-4.439.867,9.053,9.053,0,0,1-5.06-1.528,10.459,10.459,0,0,1-3.661-4.215,13,13,0,0,1-1.327-5.839V223.4h19.4v-1.364a11.734,11.734,0,0,0-2.751-8.111,9.053,9.053,0,0,0-7.082-3.086,9.682,9.682,0,0,0-5.479,1.674,11.375,11.375,0,0,0-3.948,4.666,15.007,15.007,0,0,0-1.435,6.58v1.076a14.3,14.3,0,0,0,1.483,6.532,11.581,11.581,0,0,0,4.1,4.63,10.421,10.421,0,0,0,5.754,1.686q5.694,0,8.59-4.187h0Zm-4.7-20.109a8.58,8.58,0,0,1,3.063,3.517,10.925,10.925,0,0,1,1.112,4.893V222.1h-18.04a11.971,11.971,0,0,1,3.087-7.166,8.451,8.451,0,0,1,6.412-2.811A7.885,7.885,0,0,1,181.77,213.383Zm31.283,10.707q0-6.292-2.608-9.774a8.449,8.449,0,0,0-7.153-3.481,10.124,10.124,0,0,0-5.168,1.316,9.484,9.484,0,0,0-3.613,3.78v-4.618h-1.292v35.841h1.292V233.181a8.967,8.967,0,0,0,3.589,3.3,11.169,11.169,0,0,0,5.239,1.2,8.336,8.336,0,0,0,7.106-3.565q2.608-3.564,2.608-9.618V224.09Zm-3.517,9.139a7.094,7.094,0,0,1-6.173,3.158,10.057,10.057,0,0,1-5.562-1.471,8.215,8.215,0,0,1-3.29-4.151V218.658a9.344,9.344,0,0,1,3.278-4.845,9.015,9.015,0,0,1,5.527-1.686,7.157,7.157,0,0,1,6.208,3.146q2.212,3.147,2.213,8.721Q211.737,230.072,209.536,233.229ZM238.7,211.313h-1.316v11.939H221.38V211.313h-1.292V237.2h1.292V224.544h16.006V237.2H238.7V211.313Zm6.244,13.59a15.021,15.021,0,0,0,1.46,6.592,10.713,10.713,0,0,0,9.9,6.184,10.719,10.719,0,0,0,5.874-1.65,10.888,10.888,0,0,0,4.007-4.594,15.248,15.248,0,0,0,1.412-6.676v-1.148a15.043,15.043,0,0,0-1.471-6.627,10.654,10.654,0,0,0-9.87-6.149,10.705,10.705,0,0,0-5.873,1.651,10.947,10.947,0,0,0-4.02,4.605,15.161,15.161,0,0,0-1.424,6.664V224.9Zm1.292-.909a12.852,12.852,0,0,1,2.8-8.494,8.956,8.956,0,0,1,7.225-3.373,9.141,9.141,0,0,1,5.18,1.519,10.243,10.243,0,0,1,3.577,4.223,13.478,13.478,0,0,1,1.292,5.886V224.5a12.885,12.885,0,0,1-2.787,8.566,8.976,8.976,0,0,1-7.214,3.325,9.276,9.276,0,0,1-5.228-1.507,10.089,10.089,0,0,1-3.565-4.2,13.614,13.614,0,0,1-1.28-5.922v-0.765Zm45.531,9.5-0.909-.646a9.018,9.018,0,0,1-3.242,2.674,10.306,10.306,0,0,1-4.438.867,9.057,9.057,0,0,1-5.061-1.528,10.45,10.45,0,0,1-3.66-4.215,13,13,0,0,1-1.328-5.839V223.4h19.4v-1.364a11.735,11.735,0,0,0-2.752-8.111,9.053,9.053,0,0,0-7.082-3.086,9.682,9.682,0,0,0-5.479,1.674,11.372,11.372,0,0,0-3.947,4.666,14.993,14.993,0,0,0-1.436,6.58v1.076a14.3,14.3,0,0,0,1.483,6.532,11.576,11.576,0,0,0,4.1,4.63,10.416,10.416,0,0,0,5.754,1.686q5.694,0,8.589-4.187h0Zm-4.7-20.109a8.571,8.571,0,0,1,3.062,3.517,10.926,10.926,0,0,1,1.113,4.893V222.1H273.2a11.97,11.97,0,0,1,3.086-7.166,8.454,8.454,0,0,1,6.412-2.811A7.888,7.888,0,0,1,287.068,213.383ZM320.935,237.2a11.207,11.207,0,0,0,6.854-1.842,6.091,6.091,0,0,0,2.453-5.168,5.711,5.711,0,0,0-1.8-4.211,7.218,7.218,0,0,0-4.426-2.058H324a6.6,6.6,0,0,0,3.792-2.153,6.124,6.124,0,0,0-1.172-8.745q-2.5-1.71-7.214-1.711h-8.9V237.2h10.432Zm0.048-12.465a9.943,9.943,0,0,1,5.849,1.519,4.653,4.653,0,0,1,2.142,3.96,4.844,4.844,0,0,1-2.106,4.21,9.946,9.946,0,0,1-5.814,1.484H311.8V224.736h9.188ZM311.8,212.605H319.4a12.51,12.51,0,0,1,6.269,1.271,4.354,4.354,0,0,1,2.153,4.052,4.691,4.691,0,0,1-2.009,4.125,10.437,10.437,0,0,1-5.934,1.391H311.8V212.605Zm26.821-1.292h-1.292V237.2h9.785a9.769,9.769,0,0,0,6.6-2.249,8.073,8.073,0,0,0-.024-11.544,9.818,9.818,0,0,0-6.58-2.237h-8.493v-9.858Zm8.446,11.15a8.494,8.494,0,0,1,5.706,1.878,6.1,6.1,0,0,1,2.07,4.8,6.2,6.2,0,0,1-2.118,4.941,8.655,8.655,0,0,1-5.85,1.83h-8.254V222.463h8.446Zm17.394-11.15h-1.292V237.2h1.292V211.313Zm5.5,24.6v8.9h1.052V237.2h20.84v7.608h1.292v-8.9h-2.058v-24.6h-13.9l-0.5,9.427q-0.575,9.139-4.092,13.949l-0.909,1.22h-1.722Zm7.991-14.738,0.454-8.566h11.389v23.3H373.26q4.02-5,4.69-14.738h0Zm39.214,12.321-0.909-.646a9.018,9.018,0,0,1-3.242,2.674,10.306,10.306,0,0,1-4.438.867,9.051,9.051,0,0,1-5.06-1.528,10.444,10.444,0,0,1-3.661-4.215,13,13,0,0,1-1.328-5.839V223.4h19.4v-1.364a11.735,11.735,0,0,0-2.752-8.111,9.053,9.053,0,0,0-7.082-3.086,9.682,9.682,0,0,0-5.479,1.674,11.372,11.372,0,0,0-3.947,4.666,15.007,15.007,0,0,0-1.436,6.58v1.076a14.3,14.3,0,0,0,1.483,6.532,11.576,11.576,0,0,0,4.1,4.63,10.416,10.416,0,0,0,5.754,1.686q5.694,0,8.589-4.187h0Zm-4.7-20.109a8.571,8.571,0,0,1,3.062,3.517,10.926,10.926,0,0,1,1.113,4.893V222.1H398.6a11.97,11.97,0,0,1,3.086-7.166,8.454,8.454,0,0,1,6.412-2.811A7.888,7.888,0,0,1,412.463,213.383Zm15.157-2.07-0.574,13.816q-0.36,5.76-1.5,8.222a3.935,3.935,0,0,1-3.577,2.558H420.9V237.2h0.909a5.047,5.047,0,0,0,4.7-2.8q1.471-2.754,1.854-9.675l0.5-12.119h12.393v24.6h1.316V211.313H427.62Zm41.08,22.179-0.909-.646a9.018,9.018,0,0,1-3.242,2.674,10.306,10.306,0,0,1-4.438.867,9.053,9.053,0,0,1-5.06-1.528,10.444,10.444,0,0,1-3.661-4.215,13,13,0,0,1-1.328-5.839V223.4h19.4v-1.364a11.73,11.73,0,0,0-2.752-8.111,9.053,9.053,0,0,0-7.082-3.086,9.682,9.682,0,0,0-5.479,1.674,11.38,11.38,0,0,0-3.947,4.666,15.007,15.007,0,0,0-1.436,6.58v1.076a14.29,14.29,0,0,0,1.484,6.532,11.566,11.566,0,0,0,4.1,4.63,10.416,10.416,0,0,0,5.754,1.686q5.694,0,8.589-4.187h0ZM464,213.383a8.571,8.571,0,0,1,3.062,3.517,10.926,10.926,0,0,1,1.113,4.893V222.1h-18.04a11.976,11.976,0,0,1,3.086-7.166,8.454,8.454,0,0,1,6.412-2.811A7.888,7.888,0,0,1,464,213.383Zm30.11-2.07h-1.315v11.939H476.787V211.313H475.5V237.2h1.292V224.544h16.007V237.2h1.315V211.313Zm26.1,22.179-0.91-.646a9.009,9.009,0,0,1-3.242,2.674,10.306,10.306,0,0,1-4.438.867,9.053,9.053,0,0,1-5.06-1.528,10.452,10.452,0,0,1-3.661-4.215,13,13,0,0,1-1.328-5.839V223.4h19.4v-1.364a11.734,11.734,0,0,0-2.751-8.111,9.056,9.056,0,0,0-7.082-3.086,9.68,9.68,0,0,0-5.479,1.674,11.375,11.375,0,0,0-3.948,4.666,15.007,15.007,0,0,0-1.436,6.58v1.076a14.3,14.3,0,0,0,1.484,6.532,11.574,11.574,0,0,0,4.1,4.63,10.418,10.418,0,0,0,5.754,1.686q5.694,0,8.59-4.187h0Zm-4.7-20.109a8.58,8.58,0,0,1,3.063,3.517,10.938,10.938,0,0,1,1.112,4.893V222.1h-18.04a11.971,11.971,0,0,1,3.087-7.166,8.451,8.451,0,0,1,6.412-2.811A7.885,7.885,0,0,1,515.511,213.383ZM528.3,234.9V211.313h-1.292V237.2H528.3l16.007-23.591V237.2h1.316V211.313h-1.316Zm43.426-1.412-0.909-.646a9.026,9.026,0,0,1-3.242,2.674,10.311,10.311,0,0,1-4.439.867,9.053,9.053,0,0,1-5.06-1.528,10.459,10.459,0,0,1-3.661-4.215,13,13,0,0,1-1.327-5.839V223.4h19.4v-1.364a11.734,11.734,0,0,0-2.751-8.111,9.054,9.054,0,0,0-7.082-3.086,9.682,9.682,0,0,0-5.479,1.674,11.375,11.375,0,0,0-3.948,4.666,15.007,15.007,0,0,0-1.435,6.58v1.076a14.3,14.3,0,0,0,1.483,6.532,11.581,11.581,0,0,0,4.1,4.63,10.421,10.421,0,0,0,5.754,1.686q5.694,0,8.59-4.187h0Zm-4.7-20.109a8.58,8.58,0,0,1,3.063,3.517,10.925,10.925,0,0,1,1.112,4.893V222.1h-18.04a11.971,11.971,0,0,1,3.087-7.166,8.451,8.451,0,0,1,6.412-2.811A7.885,7.885,0,0,1,567.023,213.383ZM67.9,270.113h-21.1V271.4h9.642V296h1.292V271.4H67.9v-1.292ZM88.95,292.292l-0.909-.646A9.018,9.018,0,0,1,84.8,294.32a10.307,10.307,0,0,1-4.438.867,9.054,9.054,0,0,1-5.06-1.528,10.452,10.452,0,0,1-3.661-4.215,13,13,0,0,1-1.328-5.839V282.2h19.4v-1.364a11.735,11.735,0,0,0-2.751-8.111,9.054,9.054,0,0,0-7.082-3.086,9.682,9.682,0,0,0-5.479,1.674,11.375,11.375,0,0,0-3.948,4.666,15.006,15.006,0,0,0-1.436,6.58v1.076a14.3,14.3,0,0,0,1.483,6.532,11.576,11.576,0,0,0,4.1,4.63,10.418,10.418,0,0,0,5.754,1.686q5.694,0,8.589-4.187h0Zm-4.7-20.109a8.578,8.578,0,0,1,3.063,3.517,10.929,10.929,0,0,1,1.112,4.893V280.9H70.384a11.971,11.971,0,0,1,3.086-7.166,8.453,8.453,0,0,1,6.412-2.811A7.887,7.887,0,0,1,84.249,272.183ZM113.713,296h1.938l-12.513-13.194,11.006-12.694h-1.866l-10.264,11.963H97.037V270.113H95.721V296h1.316V283.368h4.738Zm7.932-3.912q-2.477-3.1-2.476-8.53v-0.837q0-5.55,2.452-8.673a8.144,8.144,0,0,1,6.783-3.122,8.334,8.334,0,0,1,5.9,2.117,7.832,7.832,0,0,1,2.452,5.611h1.292A9.014,9.014,0,0,0,135.2,272.1a9.65,9.65,0,0,0-6.8-2.464,9.372,9.372,0,0,0-7.668,3.517q-2.861,3.516-2.859,9.4v0.861q0,6.029,2.859,9.546a9.423,9.423,0,0,0,7.716,3.517,10.021,10.021,0,0,0,6.7-2.285,8.1,8.1,0,0,0,2.895-6.041h-1.292a6.929,6.929,0,0,1-2.5,5.168,8.876,8.876,0,0,1-5.8,1.866A8.237,8.237,0,0,1,121.645,292.089Zm40.829-21.976h-21.1V271.4h9.642V296h1.292V271.4h10.168v-1.292ZM185.371,296v-0.215a16.593,16.593,0,0,1-.67-5.79v-12.37a7.516,7.516,0,0,0-2.536-5.9,9.94,9.94,0,0,0-6.651-2.093,10.6,10.6,0,0,0-6.8,2.2,6.626,6.626,0,0,0-2.776,5.359l1.292,0.048a5.482,5.482,0,0,1,2.369-4.5,9.42,9.42,0,0,1,5.91-1.818,8.6,8.6,0,0,1,5.85,1.794,6.361,6.361,0,0,1,2.045,5.048v3.781h-6.388a15.478,15.478,0,0,0-8.553,2.189,6.561,6.561,0,0,0-3.218,5.706,6.483,6.483,0,0,0,2.189,5.084,8.357,8.357,0,0,0,5.778,1.95,12.955,12.955,0,0,0,6-1.363,10.387,10.387,0,0,0,4.187-3.852,17.969,17.969,0,0,0,.479,4.737h1.483Zm-16.939-2.464a5.146,5.146,0,0,1-1.89-4.02,5.4,5.4,0,0,1,2.392-4.474q2.943-2.2,8.494-2.2h5.981v6.149a10.068,10.068,0,0,1-3.936,4.569,11.617,11.617,0,0,1-6.256,1.627A7.012,7.012,0,0,1,168.432,293.537Z" transform="translate(-31 -188)"/>
</svg>
