<?xml version="1.0" standalone="no"?>
<!DOCTYPE svg PUBLIC "-//W3C//DTD SVG 20010904//EN"
 "http://www.w3.org/TR/2001/REC-SVG-20010904/DTD/svg10.dtd">
<svg version="1.0" xmlns="http://www.w3.org/2000/svg"
 width="1024.000000pt" height="1024.000000pt" viewBox="0 0 1024.000000 1024.000000"
 preserveAspectRatio="xMidYMid meet">
<metadata>
Created by potrace 1.11, written by Peter Selinger 2001-2013
</metadata>
<g transform="translate(0.000000,1024.000000) scale(0.100000,-0.100000)"
fill="#000000" stroke="none">
<path d="M26 9493 c14 -27 34 -59 44 -73 9 -14 20 -33 23 -42 4 -10 22 -43 42
-73 19 -31 35 -57 35 -60 0 -4 45 -81 79 -135 8 -14 16 -27 16 -30 0 -3 8 -16
17 -30 8 -14 39 -65 67 -115 28 -49 56 -97 61 -105 6 -8 13 -22 17 -30 3 -8
14 -26 23 -40 15 -22 31 -49 87 -150 8 -14 26 -46 41 -71 15 -25 69 -119 121
-210 52 -90 97 -166 100 -169 3 -3 15 -23 26 -45 10 -22 24 -47 31 -55 6 -8
22 -35 35 -60 13 -25 29 -52 35 -60 6 -8 29 -46 50 -85 21 -38 50 -90 66 -114
15 -25 28 -51 28 -58 0 -7 4 -13 8 -13 5 0 15 -12 23 -27 7 -16 27 -50 43 -78
28 -48 46 -80 85 -147 10 -18 55 -96 100 -172 44 -76 81 -143 81 -147 0 -5 5
-9 11 -9 5 0 8 -4 4 -9 -3 -5 -1 -12 4 -15 5 -3 35 -52 67 -108 32 -57 63
-111 69 -120 5 -9 23 -41 39 -70 15 -29 33 -59 38 -66 15 -18 58 -94 65 -114
3 -10 9 -18 14 -18 5 0 9 -4 9 -10 0 -5 14 -33 31 -62 39 -66 66 -112 93 -160
12 -20 55 -94 96 -165 41 -70 83 -144 94 -163 10 -19 33 -57 50 -85 18 -27 35
-58 39 -67 3 -10 22 -43 42 -73 19 -31 35 -57 35 -58 0 -6 219 -382 230 -394
5 -7 10 -14 10 -17 0 -2 22 -43 49 -89 27 -47 47 -88 43 -91 -3 -3 0 -6 6 -6
6 0 17 -12 25 -27 7 -16 26 -50 42 -78 16 -27 33 -59 39 -70 6 -11 13 -22 16
-25 3 -3 35 -57 71 -120 36 -63 116 -200 176 -305 61 -104 133 -230 162 -280
28 -49 55 -97 61 -105 5 -8 27 -47 49 -87 23 -39 45 -75 51 -78 5 -3 10 -14
10 -24 0 -10 6 -24 14 -30 8 -7 22 -26 31 -44 8 -18 24 -45 34 -62 20 -33 40
-68 92 -160 18 -33 37 -61 41 -63 4 -2 8 -8 8 -13 0 -4 23 -46 50 -93 28 -47
50 -88 50 -91 0 -4 13 -26 30 -50 16 -24 30 -48 30 -54 0 -6 4 -11 9 -11 5 0
11 -8 14 -17 4 -10 21 -43 39 -74 18 -31 47 -81 64 -110 44 -79 63 -111 144
-249 80 -137 91 -156 141 -245 18 -33 37 -61 41 -63 4 -2 8 -8 8 -14 0 -5 9
-23 21 -39 11 -16 17 -29 12 -29 -4 0 -3 -4 2 -8 10 -6 24 -28 83 -132 11 -19
52 -91 92 -160 40 -69 81 -141 92 -160 22 -38 96 -163 115 -195 7 -11 16 -27
20 -35 4 -8 27 -49 51 -90 25 -41 87 -149 140 -240 52 -91 103 -178 113 -195
10 -16 30 -52 44 -80 15 -27 33 -57 41 -66 8 -8 14 -19 14 -22 0 -4 22 -44 50
-90 27 -46 50 -89 50 -95 0 -7 5 -12 10 -12 6 0 10 -7 10 -15 0 -8 4 -15 8
-15 5 0 14 -16 22 -35 8 -19 17 -35 22 -35 4 0 8 -8 8 -17 0 -15 4 -13 23 7
13 14 24 30 24 35 0 6 23 47 52 93 28 46 51 85 51 87 0 2 27 49 60 105 33 56
60 103 60 106 0 2 20 35 45 74 25 39 45 73 45 76 0 3 31 58 69 122 38 64 79
135 91 157 31 55 154 267 196 337 19 31 34 61 34 66 0 6 6 17 13 24 15 15 79
122 119 198 7 14 15 27 19 30 3 3 12 20 20 38 8 17 17 32 20 32 4 0 9 8 12 18
3 9 20 40 36 67 17 28 34 57 38 65 3 8 9 17 12 20 4 3 12 16 19 30 6 14 20 39
30 55 9 17 57 99 106 183 48 83 92 155 97 158 5 3 7 10 4 15 -4 5 -1 9 4 9 6
0 11 5 11 11 0 9 67 128 101 179 5 8 12 23 15 32 4 10 10 18 15 18 5 0 9 5 9
10 0 10 44 90 82 148 10 15 24 42 32 60 9 18 22 40 31 48 8 9 13 20 10 25 -4
5 -2 9 3 9 4 0 18 19 31 43 12 23 30 56 40 72 40 66 121 207 121 211 0 2 16
28 35 58 19 30 35 60 35 66 0 5 4 10 8 10 5 0 14 16 22 35 8 19 17 35 22 35 4
0 8 4 8 9 0 9 49 97 89 161 8 14 14 28 13 32 -1 5 2 8 8 8 5 0 10 7 10 15 0 8
3 15 8 15 4 0 16 20 27 45 11 25 22 45 25 45 3 0 16 21 30 48 13 26 39 70 57
99 18 29 33 54 33 57 0 3 16 30 35 60 19 30 35 57 35 60 0 5 35 65 78 136 9
14 15 27 13 29 -1 2 1 7 6 10 4 3 19 26 32 51 13 25 30 52 36 60 16 19 46 78
44 86 0 4 3 10 8 13 8 5 118 190 183 306 53 95 75 130 82 133 4 2 8 10 8 19 0
8 12 30 26 49 15 19 22 34 18 34 -5 0 -4 4 1 8 11 7 95 146 95 157 0 3 8 18
19 33 24 35 121 201 121 207 0 4 43 77 78 130 7 11 19 34 27 50 9 17 20 37 25
45 17 26 230 393 230 396 0 1 24 42 54 91 29 48 63 106 75 128 12 22 32 57 44
77 12 21 35 61 51 90 16 29 36 64 46 78 10 14 21 35 24 48 4 12 12 22 17 22 5
0 9 4 9 10 0 5 18 39 40 75 22 36 40 68 40 70 0 3 11 24 26 46 14 22 33 55 43
72 66 118 145 253 150 257 3 3 19 30 35 60 16 30 35 62 42 70 7 8 13 18 13 23
1 12 54 102 63 105 4 2 8 12 8 22 0 10 4 20 8 22 5 2 34 48 66 103 31 55 61
107 66 115 5 8 44 76 87 150 42 74 81 137 85 138 5 2 6 7 3 12 -3 5 0 14 7 22
7 7 20 27 28 43 8 17 18 32 21 35 4 3 17 25 29 50 12 25 26 47 29 50 4 3 20
30 35 60 16 30 33 62 40 70 6 8 16 24 22 35 43 79 146 257 164 285 6 8 13 22
17 30 4 8 9 17 13 20 3 3 14 21 23 40 10 19 29 53 43 75 13 22 27 47 31 55 4
8 9 17 12 20 3 3 13 19 22 35 8 17 28 51 43 78 l28 47 -1974 0 -1975 0 -34
-65 c-18 -36 -37 -65 -41 -65 -5 0 -8 -4 -8 -9 0 -9 -209 -382 -220 -391 -3
-3 -11 -16 -17 -30 -7 -14 -26 -47 -42 -75 -16 -27 -36 -61 -44 -75 -7 -14
-57 -101 -110 -193 -53 -92 -97 -172 -97 -177 0 -4 -3 -10 -8 -12 -9 -4 -92
-147 -92 -159 0 -5 -4 -9 -10 -9 -5 0 -10 -5 -10 -11 0 -5 -26 -56 -59 -112
-32 -56 -71 -124 -86 -152 -15 -27 -33 -57 -40 -65 -7 -8 -18 -30 -26 -47 -8
-18 -17 -33 -21 -33 -5 0 -8 -4 -8 -9 0 -5 -31 -62 -70 -127 -38 -66 -78 -137
-89 -160 -38 -78 -36 -79 -164 139 -65 111 -125 216 -135 232 -9 17 -19 32
-22 35 -5 5 -14 21 -52 89 -38 70 -161 276 -179 303 -10 14 -20 32 -21 40 -2
7 -5 15 -8 18 -12 12 -50 70 -50 76 0 3 -27 51 -60 105 -33 55 -56 99 -52 99
4 0 2 4 -3 8 -11 7 -65 88 -65 96 0 3 -18 34 -40 68 -22 35 -40 69 -40 76 0 6
-4 12 -9 12 -5 0 -11 8 -14 18 -6 17 -37 72 -47 82 -3 3 -12 19 -20 35 -8 17
-27 48 -41 70 -14 22 -37 60 -50 85 -13 25 -26 47 -29 50 -3 3 -11 16 -18 29
-33 57 -52 90 -86 149 l-37 62 -1960 0 -1960 0 27 -47z"/>
</g>
</svg>
